<svg xmlns="http://www.w3.org/2000/svg" xmlns:xlink="http://www.w3.org/1999/xlink" width="200" zoomAndPan="magnify" viewBox="0 0 150 149.999998" height="200" preserveAspectRatio="xMidYMid meet" version="1.2"><defs/><g id="04da9abe09"><g style="fill:#000000;fill-opacity:0.349;"><g transform="translate(-0.990621, 112.813328)"><path style="stroke:none" d="M 40.078125 13.625 C 35.972656 13.625 32.335938 13.332031 29.171875 12.75 C 26.003906 12.164062 23.210938 11.421875 20.796875 10.515625 C 18.390625 9.609375 16.242188 8.6875 14.359375 7.75 L 2.71875 -3.90625 L 2.71875 -24.53125 C 6.40625 -22.351562 10.195312 -20.523438 14.09375 -19.046875 C 18 -17.578125 22.347656 -16.84375 27.140625 -16.84375 C 29.359375 -16.84375 31.378906 -17.039062 33.203125 -17.4375 C 35.035156 -17.832031 36.539062 -18.367188 37.71875 -19.046875 C 36.238281 -19.578125 34.734375 -20.113281 33.203125 -20.65625 C 31.679688 -21.207031 30.242188 -21.726562 28.890625 -22.21875 C 26.703125 -23.050781 24.851562 -23.878906 23.34375 -24.703125 C 21.84375 -25.535156 20.5 -26.457031 19.3125 -27.46875 C 18.125 -28.488281 16.925781 -29.660156 15.71875 -30.984375 C 14.507812 -32.304688 13.113281 -33.890625 11.53125 -35.734375 L 6.5625 -41.5 C 5.007812 -43.3125 3.847656 -45.328125 3.078125 -47.546875 C 2.304688 -49.773438 1.921875 -52.320312 1.921875 -55.1875 C 1.921875 -59.0625 2.664062 -62.609375 4.15625 -65.828125 C 5.644531 -69.054688 7.765625 -71.835938 10.515625 -74.171875 C 13.265625 -76.515625 16.523438 -78.328125 20.296875 -79.609375 C 24.066406 -80.890625 28.234375 -81.53125 32.796875 -81.53125 C 35.359375 -81.53125 37.984375 -81.332031 40.671875 -80.9375 C 43.367188 -80.539062 45.976562 -79.984375 48.5 -79.265625 C 51.03125 -78.546875 53.296875 -77.695312 55.296875 -76.71875 L 67 -65.015625 L 67 -45.0625 C 64.957031 -46.34375 62.738281 -47.507812 60.34375 -48.5625 C 57.957031 -49.625 55.53125 -50.472656 53.0625 -51.109375 C 50.59375 -51.753906 48.226562 -52.078125 45.96875 -52.078125 C 43.664062 -52.078125 41.5625 -51.820312 39.65625 -51.3125 C 37.757812 -50.800781 36.242188 -50.070312 35.109375 -49.125 C 37.554688 -48.414062 40.082031 -47.570312 42.6875 -46.59375 C 45.289062 -45.613281 47.785156 -44.425781 50.171875 -43.03125 C 52.566406 -41.632812 54.707031 -39.972656 56.59375 -38.046875 L 64.515625 -29.96875 C 68.960938 -25.40625 71.1875 -19.769531 71.1875 -13.0625 C 71.1875 -9.144531 70.429688 -5.554688 68.921875 -2.296875 C 67.410156 0.960938 65.269531 3.78125 62.5 6.15625 C 59.726562 8.53125 56.4375 10.367188 52.625 11.671875 C 48.820312 12.972656 44.640625 13.625 40.078125 13.625 Z M 29.96875 0.34375 C 34.257812 0.34375 38.1875 -0.25 41.75 -1.4375 C 45.3125 -2.625 48.382812 -4.320312 50.96875 -6.53125 C 53.550781 -8.738281 55.546875 -11.347656 56.953125 -14.359375 C 58.367188 -17.378906 59.0625 -20.695312 59.03125 -24.3125 C 58.988281 -27.550781 58.410156 -30.335938 57.296875 -32.671875 C 56.191406 -35.015625 54.695312 -36.992188 52.8125 -38.609375 C 50.925781 -40.234375 48.8125 -41.59375 46.46875 -42.6875 C 44.132812 -43.78125 41.734375 -44.722656 39.265625 -45.515625 C 36.796875 -46.304688 34.390625 -47.039062 32.046875 -47.71875 C 29.710938 -48.394531 27.613281 -49.109375 25.75 -49.859375 C 23.882812 -50.617188 22.40625 -51.523438 21.3125 -52.578125 C 20.21875 -53.628906 19.671875 -54.929688 19.671875 -56.484375 C 19.671875 -58.140625 20.3125 -59.585938 21.59375 -60.828125 C 22.875 -62.078125 24.644531 -63.050781 26.90625 -63.75 C 29.164062 -64.445312 31.769531 -64.796875 34.71875 -64.796875 C 37.695312 -64.796875 40.867188 -64.3125 44.234375 -63.34375 C 47.609375 -62.382812 50.769531 -61.113281 53.71875 -59.53125 L 53.71875 -75.25 C 51.832031 -76.113281 49.707031 -76.859375 47.34375 -77.484375 C 44.988281 -78.109375 42.566406 -78.597656 40.078125 -78.953125 C 37.597656 -79.316406 35.171875 -79.5 32.796875 -79.5 C 28.535156 -79.5 24.640625 -78.910156 21.109375 -77.734375 C 17.585938 -76.566406 14.546875 -74.898438 11.984375 -72.734375 C 9.421875 -70.566406 7.441406 -67.992188 6.046875 -65.015625 C 4.648438 -62.035156 3.953125 -58.757812 3.953125 -55.1875 C 3.953125 -51.976562 4.488281 -49.222656 5.5625 -46.921875 C 6.644531 -44.628906 8.109375 -42.679688 9.953125 -41.078125 C 11.796875 -39.472656 13.859375 -38.113281 16.140625 -37 C 18.421875 -35.894531 20.785156 -34.9375 23.234375 -34.125 C 25.679688 -33.3125 28.046875 -32.554688 30.328125 -31.859375 C 32.609375 -31.160156 34.671875 -30.414062 36.515625 -29.625 C 38.367188 -28.832031 39.832031 -27.898438 40.90625 -26.828125 C 41.976562 -25.753906 42.515625 -24.425781 42.515625 -22.84375 C 42.515625 -21.21875 41.863281 -19.800781 40.5625 -18.59375 C 39.257812 -17.394531 37.445312 -16.460938 35.125 -15.796875 C 32.8125 -15.140625 30.148438 -14.8125 27.140625 -14.8125 C 22.578125 -14.8125 18.457031 -15.441406 14.78125 -16.703125 C 11.101562 -17.960938 7.722656 -19.5 4.640625 -21.3125 L 4.640625 -5.03125 C 7.273438 -3.789062 9.898438 -2.78125 12.515625 -2 C 15.140625 -1.226562 17.875 -0.65625 20.71875 -0.28125 C 23.5625 0.09375 26.644531 0.300781 29.96875 0.34375 Z M 64.96875 -48.5625 L 64.96875 -64.234375 L 55.75 -73.4375 L 55.75 -57.328125 Z M 35.046875 -62.140625 L 35.625 -62.140625 L 35.625 -62.703125 L 35.046875 -62.703125 Z M 30.921875 -62.015625 L 32 -62.015625 L 32 -62.640625 L 30.921875 -62.53125 Z M 32.734375 -49.859375 L 32.734375 -51.34375 L 34.15625 -51.34375 L 34.15625 -53.140625 L 32.34375 -53.140625 L 32.34375 -51.734375 L 30.703125 -51.734375 L 30.703125 -53.375 L 32.171875 -53.375 L 32.171875 -55.1875 L 30.296875 -55.1875 L 30.296875 -53.71875 L 28.671875 -53.71875 L 28.671875 -55.34375 L 30.140625 -55.34375 L 30.140625 -57.21875 L 28.328125 -57.21875 L 28.328125 -55.75 L 26.6875 -55.75 L 26.6875 -57.390625 L 28.15625 -57.390625 L 28.15625 -59.203125 L 26.296875 -59.203125 L 26.296875 -57.71875 L 24.65625 -57.71875 L 24.65625 -59.359375 L 26.125 -59.359375 L 26.125 -61.234375 L 25.890625 -61.234375 L 24.25 -60.390625 L 24.25 -59.765625 L 23.46875 -59.765625 C 22.289062 -58.785156 21.703125 -57.691406 21.703125 -56.484375 C 21.742188 -55.390625 22.242188 -54.457031 23.203125 -53.6875 C 24.171875 -52.914062 25.484375 -52.234375 27.140625 -51.640625 C 28.796875 -51.054688 30.660156 -50.460938 32.734375 -49.859375 Z M 28.828125 -59.9375 L 30.078125 -59.9375 L 30.078125 -61.171875 L 28.828125 -61.171875 Z M 32.96875 -60.046875 L 34.03125 -60.046875 L 34.03125 -61.0625 L 32.96875 -61.0625 Z M 37.03125 -60.09375 L 37.59375 -60.09375 L 37.59375 -60.671875 L 37.03125 -60.671875 Z M 30.875 -57.953125 L 32.0625 -57.953125 L 32.0625 -59.140625 L 30.875 -59.140625 Z M 35 -58.015625 L 36.015625 -58.015625 L 36.015625 -59.078125 L 35 -59.078125 Z M 39.0625 -58.0625 L 39.640625 -58.0625 L 39.640625 -58.625 L 39.0625 -58.625 Z M 32.90625 -55.921875 L 34.09375 -55.921875 L 34.09375 -57.109375 L 32.90625 -57.109375 Z M 36.96875 -55.96875 L 38.046875 -55.96875 L 38.046875 -57.046875 L 36.96875 -57.046875 Z M 23.125 -56.203125 L 23.125 -56.875 L 23.796875 -56.875 L 23.796875 -56.203125 Z M 41.109375 -56.09375 L 41.671875 -56.09375 L 41.671875 -56.65625 L 41.109375 -56.65625 Z M 34.890625 -53.875 L 36.125 -53.875 L 36.125 -55.125 L 34.890625 -55.125 Z M 39.015625 -54 L 40.078125 -54 L 40.078125 -55.015625 L 39.015625 -55.015625 Z M 25.15625 -54.21875 L 25.15625 -54.84375 L 25.78125 -54.84375 L 25.78125 -54.21875 Z M 43.078125 -54.046875 L 43.640625 -54.046875 L 43.640625 -54.609375 L 43.078125 -54.609375 Z M 36.921875 -52.53125 L 38.046875 -52.921875 L 38.046875 -53.09375 L 36.921875 -53.09375 Z M 27.140625 -52.1875 L 27.140625 -52.859375 L 27.8125 -52.859375 L 27.8125 -52.1875 Z M 15.890625 -34.03125 L 16.734375 -34.03125 L 16.734375 -34.484375 C 16.660156 -34.523438 16.578125 -34.5625 16.484375 -34.59375 C 16.390625 -34.632812 16.304688 -34.675781 16.234375 -34.71875 L 15.890625 -34.890625 Z M 17.859375 -32 L 18.765625 -32 L 18.765625 -32.96875 L 17.859375 -32.96875 Z M 21.875 -32 L 22.84375 -32 L 22.84375 -32.0625 L 21.875 -32.390625 Z M 59.078125 6.21875 L 60.265625 5.375 L 59.078125 5.375 L 59.078125 3.453125 L 60.953125 3.453125 L 60.953125 4.8125 L 62.640625 3.21875 L 61.234375 3.21875 L 61.234375 1.578125 L 62.875 1.578125 L 62.875 3 L 64.453125 1.125 L 63.328125 1.125 L 63.328125 -0.34375 L 64.796875 -0.34375 L 64.796875 0.734375 L 65.921875 -1.015625 L 65.46875 -1.015625 L 65.46875 -2.265625 L 66.609375 -2.265625 C 67.015625 -3.054688 67.367188 -3.863281 67.671875 -4.6875 C 67.972656 -5.519531 68.238281 -6.367188 68.46875 -7.234375 L 67.671875 -7.234375 L 67.671875 -8.078125 L 68.53125 -8.078125 L 68.53125 -7.46875 C 68.71875 -8.363281 68.863281 -9.28125 68.96875 -10.21875 C 69.082031 -11.164062 69.140625 -12.113281 69.140625 -13.0625 C 69.140625 -16.257812 68.640625 -19.113281 67.640625 -21.625 C 66.648438 -24.132812 65.117188 -26.425781 63.046875 -28.5 L 59.984375 -31.546875 C 60.328125 -30.492188 60.59375 -29.375 60.78125 -28.1875 C 60.96875 -27 61.0625 -25.707031 61.0625 -24.3125 C 61.0625 -22.875 60.957031 -21.476562 60.75 -20.125 C 60.539062 -18.769531 60.226562 -17.453125 59.8125 -16.171875 L 60.4375 -16.171875 L 60.4375 -15.328125 L 59.59375 -15.328125 L 59.59375 -15.546875 C 58.6875 -12.941406 57.367188 -10.566406 55.640625 -8.421875 L 56.703125 -8.421875 L 56.703125 -6.953125 L 55.296875 -6.953125 L 55.296875 -8.03125 L 53.71875 -6.328125 L 54.78125 -6.328125 L 54.78125 -4.6875 L 53.140625 -4.6875 L 53.140625 -5.765625 L 51.796875 -4.578125 L 52.921875 -4.578125 L 52.921875 -2.71875 L 51.046875 -2.71875 L 51.046875 -4.015625 L 49.078125 -2.65625 L 51 -2.65625 L 51 -0.671875 L 53.03125 -0.671875 L 53.03125 1.359375 L 55.0625 1.359375 L 55.0625 3.328125 L 57.046875 3.328125 L 57.046875 5.375 L 59.078125 5.375 Z M 23.859375 -29.96875 L 24.875 -29.96875 L 24.875 -30.984375 L 23.859375 -30.984375 Z M 19.84375 -29.96875 L 20.859375 -29.96875 L 20.859375 -30.921875 L 19.84375 -30.921875 Z M 27.875 -29.90625 L 28.953125 -29.90625 L 28.953125 -30.140625 L 27.875 -30.46875 Z M 25.84375 -27.875 L 26.96875 -27.875 L 26.96875 -29 L 25.84375 -29 Z M 29.859375 -27.875 L 31.046875 -27.875 L 31.046875 -29 L 29.859375 -29 Z M 21.875 -27.9375 L 22.890625 -27.9375 L 22.890625 -28.953125 L 21.828125 -28.953125 L 21.828125 -27.984375 Z M 33.8125 -27.8125 L 35.046875 -27.8125 L 35.046875 -28.046875 L 33.8125 -28.5 Z M 35.78125 -25.78125 L 37.140625 -25.78125 L 37.140625 -27.078125 L 35.78125 -27.078125 Z M 27.8125 -25.84375 L 29 -25.84375 L 29 -27.03125 L 27.8125 -27.03125 Z M 31.828125 -25.84375 L 33.078125 -25.84375 L 33.078125 -27.03125 L 31.828125 -27.03125 Z M 24.9375 -26.0625 L 24.9375 -26.96875 L 23.796875 -26.96875 L 23.796875 -26.6875 Z M 37.828125 -23.75 L 39.1875 -23.75 L 39.1875 -25.109375 L 37.828125 -25.109375 Z M 30.46875 -23.796875 L 31.046875 -23.796875 L 31.046875 -25.046875 L 29.796875 -25.046875 L 29.796875 -24.03125 Z M 33.8125 -23.75 L 35.109375 -23.75 L 35.109375 -25.046875 L 33.8125 -25.046875 Z M 33.125 -22.84375 L 33.125 -23.125 L 32.34375 -23.125 Z M 39.796875 -21.703125 L 40.25 -21.703125 C 40.40625 -22.003906 40.484375 -22.382812 40.484375 -22.84375 L 40.484375 -23.125 L 39.796875 -23.125 Z M 36.40625 -21.703125 L 37.140625 -21.703125 L 37.140625 -23.0625 L 35.78125 -23.0625 L 35.78125 -21.9375 Z M 61.796875 -21.546875 L 61.796875 -22.046875 L 62.3125 -22.046875 L 62.3125 -21.546875 Z M 39.1875 -20.6875 L 39.1875 -21.09375 L 38.109375 -21.09375 Z M 63.828125 -19.5 L 63.828125 -20.015625 L 64.34375 -20.015625 L 64.34375 -19.5 Z M 61.6875 -17.40625 L 61.6875 -18.09375 L 62.359375 -18.09375 L 62.359375 -17.40625 Z M 65.8125 -17.46875 L 65.8125 -17.984375 L 66.3125 -17.984375 L 66.3125 -17.46875 Z M 63.71875 -15.375 L 63.71875 -16.0625 L 64.390625 -16.0625 L 64.390625 -15.375 Z M 67.84375 -15.484375 L 67.84375 -16 L 68.359375 -16 L 68.359375 -15.484375 Z M 61.625 -13.28125 L 61.625 -14.140625 L 62.46875 -14.140625 L 62.46875 -13.28125 Z M 65.75 -13.40625 L 65.75 -14.078125 L 66.4375 -14.078125 L 66.4375 -13.40625 Z M 59.53125 -11.1875 L 59.53125 -12.21875 L 60.546875 -12.21875 L 60.546875 -11.1875 Z M 63.609375 -11.25 L 63.609375 -12.15625 L 64.515625 -12.15625 L 64.515625 -11.25 Z M 67.734375 -11.359375 L 67.734375 -12.046875 L 68.40625 -12.046875 L 68.40625 -11.359375 Z M 57.390625 -9.109375 L 57.390625 -10.296875 L 58.625 -10.296875 L 58.625 -9.109375 Z M 61.515625 -9.15625 L 61.515625 -10.234375 L 62.59375 -10.234375 L 62.59375 -9.15625 Z M 65.640625 -9.265625 L 65.640625 -10.125 L 66.484375 -10.125 L 66.484375 -9.265625 Z M 59.421875 -7.0625 L 59.421875 -8.3125 L 60.671875 -8.3125 L 60.671875 -7.0625 Z M 63.546875 -7.1875 L 63.546875 -8.203125 L 64.5625 -8.203125 L 64.5625 -7.1875 Z M 57.28125 -4.921875 L 57.28125 -6.390625 L 58.75 -6.390625 L 58.75 -4.921875 Z M 61.453125 -5.03125 L 61.453125 -6.28125 L 62.640625 -6.28125 L 62.640625 -5.03125 Z M 65.53125 -5.140625 L 65.53125 -6.15625 L 66.609375 -6.15625 L 66.609375 -5.140625 Z M 55.1875 -2.828125 L 55.1875 -4.46875 L 56.828125 -4.46875 L 56.828125 -2.828125 Z M 59.3125 -2.9375 L 59.3125 -4.359375 L 60.78125 -4.359375 L 60.78125 -2.9375 Z M 63.4375 -3.046875 L 63.4375 -4.234375 L 64.6875 -4.234375 L 64.6875 -3.046875 Z M 47.046875 -0.796875 L 48.90625 -0.796875 L 48.90625 -2.546875 L 47.046875 -1.53125 Z M 53.03125 -0.671875 L 53.03125 -2.546875 L 54.90625 -2.546875 L 54.90625 -0.671875 Z M 57.15625 -0.796875 L 57.15625 -2.484375 L 58.859375 -2.484375 L 58.859375 -0.796875 Z M 61.34375 -0.90625 L 61.34375 -2.375 L 62.765625 -2.375 L 62.765625 -0.90625 Z M 49.125 1.25 L 50.9375 1.25 L 50.9375 -0.5625 L 49.125 -0.5625 Z M 55.0625 1.296875 L 55.0625 -0.5625 L 56.9375 -0.5625 L 56.9375 1.296875 Z M 45.234375 1.078125 L 46.75 1.078125 L 46.75 -0.453125 L 45.234375 -0.453125 Z M 59.203125 1.25 L 59.203125 -0.453125 L 60.890625 -0.453125 L 60.890625 1.25 Z M 41.328125 0.96875 L 42.625 0.96875 L 42.625 0.390625 L 41.328125 0.796875 Z M 51.109375 3.21875 L 52.921875 3.21875 L 52.921875 1.46875 L 51.109375 1.46875 Z M 57.046875 3.328125 L 57.046875 1.46875 L 58.96875 1.46875 L 58.96875 3.328125 Z M 47.203125 3.109375 L 48.796875 3.109375 L 48.796875 1.578125 L 47.203125 1.578125 Z M 43.3125 3 L 44.609375 3 L 44.609375 1.703125 L 43.3125 1.703125 Z M 39.40625 2.890625 L 40.484375 2.890625 L 40.484375 1.8125 L 39.40625 1.8125 Z M 35.5 2.71875 L 36.296875 2.71875 L 36.296875 1.921875 L 35.5 2.03125 Z M 31.609375 2.59375 L 32.171875 2.59375 L 32.171875 2.3125 L 31.609375 2.3125 Z M 53.140625 5.265625 L 54.953125 5.265625 L 54.953125 3.453125 L 53.140625 3.453125 Z M 49.25 5.140625 L 50.765625 5.140625 L 50.765625 3.5625 L 49.25 3.5625 Z M 45.34375 5.03125 L 46.640625 5.03125 L 46.640625 3.671875 L 45.34375 3.671875 Z M 41.4375 4.859375 L 42.453125 4.859375 L 42.453125 3.84375 L 41.4375 3.84375 Z M 37.546875 4.75 L 38.328125 4.75 L 38.328125 3.953125 L 37.546875 3.953125 Z M 33.640625 4.640625 L 34.15625 4.640625 L 34.15625 4.078125 L 33.640625 4.078125 Z M 55.1875 7.296875 L 56.9375 7.296875 L 56.9375 5.484375 L 55.1875 5.484375 Z M 51.28125 7.125 L 52.8125 7.125 L 52.8125 5.59375 L 51.28125 5.59375 Z M 47.328125 7.015625 L 48.6875 7.015625 L 48.6875 5.703125 L 47.328125 5.703125 Z M 43.421875 6.890625 L 44.5 6.890625 L 44.5 5.828125 L 43.421875 5.828125 Z M 39.578125 6.78125 L 40.375 6.78125 L 40.375 5.9375 L 39.578125 5.9375 Z M 35.671875 6.609375 L 36.1875 6.609375 L 36.1875 6.109375 L 35.671875 6.109375 Z M 53.265625 9.15625 L 53.59375 9.15625 L 54.84375 8.59375 L 54.84375 7.625 L 53.265625 7.625 Z M 49.359375 9.046875 L 50.65625 9.046875 L 50.65625 7.75 L 49.359375 7.75 Z M 45.453125 8.9375 L 46.53125 8.9375 L 46.53125 7.859375 L 45.453125 7.859375 Z M 41.5625 8.765625 L 42.34375 8.765625 L 42.34375 7.96875 L 41.5625 7.96875 Z M 37.65625 8.65625 L 38.21875 8.65625 L 38.21875 8.140625 L 37.65625 8.140625 Z M 51.34375 9.953125 L 52.234375 9.671875 L 51.34375 9.671875 Z M 47.5 10.90625 L 48.515625 10.6875 L 48.515625 9.890625 L 47.5 9.890625 Z M 43.59375 10.796875 L 44.375 10.796875 L 44.375 10 L 43.59375 10 Z M 39.6875 10.625 L 40.203125 10.625 L 40.203125 10.125 L 39.6875 10.125 Z M 39.6875 10.625 "/></g></g><g style="fill:#000000;fill-opacity:0.349;"><g transform="translate(47.058112, 112.813328)"><path style="stroke:none" d="M 38.328125 12.265625 L 26.625 0.5625 L -3.84375 -80.171875 L 18.375 -80.171875 L 34.15625 -68.53125 L 43.9375 -40.828125 L 56.484375 -80.171875 L 78.078125 -80.171875 L 88.703125 -69.265625 L 58.0625 12.265625 Z M 28.15625 -1.015625 L 47.15625 -1.015625 L 76.21875 -78.140625 L 57.953125 -78.140625 L 38.734375 -17.8125 L 17.359375 -78.140625 L -0.90625 -78.140625 Z M 77.34375 -75.484375 L 78.640625 -75.484375 L 78.640625 -76.71875 L 78.25 -77.125 L 77.96875 -77.125 Z M 38.609375 -24.140625 L 42.90625 -37.59375 L 32.453125 -67.28125 L 20.1875 -76.390625 Z M 78.984375 -73.4375 L 80.6875 -73.4375 L 80.6875 -74.625 L 80.171875 -75.140625 L 78.984375 -75.140625 Z M 76.953125 -71.40625 L 78.703125 -71.40625 L 78.703125 -73.109375 L 76.953125 -73.109375 Z M 81.015625 -71.46875 L 82.65625 -71.46875 L 82.65625 -72.59375 L 82.15625 -73.109375 L 81.015625 -73.109375 Z M 75.078125 -69.375 L 76.671875 -69.375 L 76.671875 -71.125 L 75.703125 -71.125 Z M 78.984375 -69.421875 L 80.6875 -69.421875 L 80.6875 -71.125 L 78.984375 -71.125 Z M 83.0625 -69.421875 L 84.6875 -69.421875 L 84.6875 -70.5 L 84.125 -71.0625 L 83.0625 -71.0625 Z M 76.953125 -67.390625 L 78.703125 -67.390625 L 78.703125 -69.09375 L 76.953125 -69.09375 Z M 81.015625 -67.390625 L 82.71875 -67.390625 L 82.71875 -69.09375 L 81.015625 -69.09375 Z M 85.03125 -67.390625 L 85.828125 -67.390625 L 86.328125 -68.8125 L 86.046875 -69.09375 L 85.03125 -69.09375 Z M 74.34375 -67.34375 L 74.6875 -67.34375 L 74.6875 -68.296875 Z M 74.90625 -65.359375 L 76.71875 -65.359375 L 76.71875 -67.109375 L 74.90625 -67.109375 Z M 78.984375 -65.359375 L 80.6875 -65.359375 L 80.6875 -67.109375 L 78.984375 -67.109375 Z M 83 -65.359375 L 84.6875 -65.359375 L 84.6875 -67.109375 L 83 -67.109375 Z M 72.875 -63.328125 L 74.6875 -63.328125 L 74.6875 -65.125 L 73.5 -65.125 L 72.875 -63.5 Z M 76.953125 -63.328125 L 78.703125 -63.328125 L 78.703125 -65.125 L 76.953125 -65.125 Z M 80.96875 -63.328125 L 82.71875 -63.328125 L 82.71875 -65.078125 L 80.96875 -65.078125 Z M 74.90625 -61.28125 L 76.71875 -61.28125 L 76.71875 -63.09375 L 74.90625 -63.09375 Z M 78.921875 -61.28125 L 80.734375 -61.28125 L 80.734375 -63.09375 L 78.921875 -63.09375 Z M 83 -61.34375 L 83.5625 -61.34375 L 84.1875 -63.09375 L 83 -63.09375 Z M 72.03125 -61.28125 L 72.703125 -61.28125 L 72.703125 -63.046875 Z M 72.875 -59.25 L 74.75 -59.25 L 74.75 -61.125 L 72.875 -61.125 Z M 76.890625 -59.25 L 78.703125 -59.25 L 78.703125 -61.125 L 76.890625 -61.125 Z M 80.96875 -59.3125 L 82.71875 -59.3125 L 82.71875 -61.0625 L 80.96875 -61.0625 Z M 70.84375 -57.21875 L 72.703125 -57.21875 L 72.703125 -59.140625 L 71.234375 -59.140625 L 70.84375 -58.125 Z M 74.859375 -57.28125 L 76.71875 -57.28125 L 76.71875 -59.078125 L 74.859375 -59.078125 Z M 78.921875 -57.28125 L 80.734375 -57.28125 L 80.734375 -59.078125 L 78.921875 -59.078125 Z M 69.71875 -55.1875 L 70.734375 -55.1875 L 70.734375 -57.109375 L 70.453125 -57.109375 Z M 72.828125 -55.1875 L 74.75 -55.1875 L 74.75 -57.109375 L 72.828125 -57.109375 Z M 76.890625 -55.234375 L 78.765625 -55.234375 L 78.765625 -57.109375 L 76.890625 -57.109375 Z M 80.96875 -55.234375 L 81.25 -55.234375 L 81.921875 -57.046875 L 80.96875 -57.046875 Z M 70.78125 -53.203125 L 72.765625 -53.203125 L 72.765625 -55.125 L 70.78125 -55.125 Z M 74.859375 -53.203125 L 76.78125 -53.203125 L 76.78125 -55.0625 L 74.859375 -55.0625 Z M 78.921875 -53.203125 L 80.515625 -53.203125 L 80.796875 -54.046875 L 80.796875 -55.0625 L 78.921875 -55.0625 Z M 68.75 -51.171875 L 70.734375 -51.171875 L 70.734375 -53.09375 L 68.921875 -53.09375 L 68.75 -52.578125 Z M 72.828125 -51.171875 L 74.75 -51.171875 L 74.75 -53.09375 L 72.828125 -53.09375 Z M 76.890625 -51.171875 L 78.765625 -51.171875 L 78.765625 -53.09375 L 76.890625 -53.09375 Z M 56.65625 10.40625 L 57.890625 7.015625 L 56.984375 7.015625 L 56.984375 5.59375 L 58.453125 5.59375 L 58.96875 4.1875 L 58.96875 3.5625 L 59.203125 3.5625 L 60.15625 0.96875 L 58.96875 0.96875 L 58.96875 -0.515625 L 60.4375 -0.515625 L 60.4375 0.28125 L 60.953125 -1.078125 L 60.953125 -2.546875 L 61.515625 -2.546875 L 62.421875 -5.03125 L 60.953125 -5.03125 L 60.953125 -6.5625 L 62.46875 -6.5625 L 62.46875 -5.140625 L 63.15625 -7.015625 L 62.921875 -7.015625 L 62.921875 -8.59375 L 63.78125 -8.59375 L 65.421875 -13 L 64.90625 -13 L 64.90625 -14.703125 L 66.03125 -14.703125 L 67.671875 -19.046875 L 66.890625 -19.046875 L 66.890625 -20.75 L 68.296875 -20.75 L 68.859375 -22.21875 L 68.859375 -22.78125 L 69.09375 -22.78125 L 69.9375 -25.046875 L 68.859375 -25.046875 L 68.859375 -26.859375 L 70.609375 -26.859375 L 70.84375 -27.484375 L 70.84375 -28.890625 L 71.359375 -28.890625 L 72.203125 -31.046875 L 70.84375 -31.046875 L 70.84375 -32.90625 L 72.703125 -32.90625 L 72.703125 -32.453125 L 72.9375 -33.015625 L 72.828125 -33.015625 L 72.828125 -34.9375 L 73.609375 -34.9375 L 74.40625 -37.03125 L 72.828125 -37.03125 L 72.828125 -39.015625 L 74.796875 -39.015625 L 74.796875 -38.046875 L 75.203125 -39.0625 L 74.796875 -39.0625 L 74.796875 -41.046875 L 75.9375 -41.046875 L 76.671875 -43.078125 L 74.796875 -43.078125 L 74.796875 -45.0625 L 72.765625 -45.0625 L 72.765625 -47.09375 L 70.78125 -47.09375 L 70.78125 -49.125 L 72.765625 -49.125 L 72.765625 -51.109375 L 70.78125 -51.109375 L 70.78125 -49.125 L 68.75 -49.125 L 68.75 -51.109375 L 68.1875 -51.109375 L 67.453125 -49.125 L 68.75 -49.125 L 68.75 -47.09375 L 66.71875 -47.09375 L 66.71875 -45.125 L 65.921875 -45.125 L 65.125 -43.03125 L 66.71875 -43.03125 L 66.71875 -41.109375 L 64.796875 -41.109375 L 64.796875 -42.125 L 64.390625 -40.984375 L 64.6875 -40.984375 L 64.6875 -39.125 L 63.65625 -39.125 L 62.8125 -36.921875 L 64.6875 -36.921875 L 64.6875 -35.109375 L 62.8125 -35.109375 L 62.8125 -36.859375 L 62.078125 -34.890625 L 62.59375 -34.890625 L 62.59375 -33.078125 L 61.40625 -33.078125 L 59.765625 -28.828125 L 60.546875 -28.828125 L 60.546875 -27.078125 L 59.140625 -27.078125 L 58.515625 -25.5 L 58.515625 -25.109375 L 58.34375 -25.109375 L 57.5 -22.734375 L 58.515625 -22.734375 L 58.515625 -21.09375 L 56.875 -21.09375 L 56.484375 -20.078125 L 56.484375 -19.109375 L 56.09375 -19.109375 L 55.1875 -16.671875 L 56.484375 -16.671875 L 56.484375 -15.09375 L 54.90625 -15.09375 L 54.90625 -15.890625 L 54.453125 -14.640625 L 54.453125 -13.0625 L 53.828125 -13.0625 L 52.125 -8.53125 L 52.359375 -8.53125 L 52.359375 -7.0625 L 51.5625 -7.0625 L 49.8125 -2.484375 L 50.3125 -2.484375 L 50.3125 -1.078125 L 49.296875 -1.078125 L 48.5625 0.84375 L 49.1875 1.578125 L 50.3125 1.578125 L 50.3125 2.9375 L 50.9375 3.671875 L 50.9375 3.625 L 52.296875 3.625 L 52.296875 4.96875 L 52.078125 4.96875 L 52.984375 6.046875 L 52.984375 5.59375 L 54.328125 5.59375 L 54.328125 6.953125 L 53.765625 6.953125 L 55.015625 8.421875 L 55.015625 7.625 L 56.375 7.625 L 56.375 8.984375 L 55.46875 8.984375 Z M 74.859375 -49.125 L 76.78125 -49.125 L 76.78125 -51.046875 L 74.859375 -51.046875 Z M 78.875 -49.1875 L 78.984375 -49.1875 L 79.65625 -51.046875 L 78.875 -51.046875 Z M 72.828125 -47.09375 L 74.796875 -47.09375 L 74.796875 -49.078125 L 72.828125 -49.078125 Z M 76.828125 -47.15625 L 78.1875 -47.15625 L 78.8125 -48.734375 L 78.8125 -49.078125 L 76.828125 -49.078125 Z M 68.75 -45.0625 L 68.75 -47.09375 L 70.78125 -47.09375 L 70.78125 -45.0625 Z M 74.796875 -45.125 L 76.78125 -45.125 L 76.78125 -47.046875 L 74.796875 -47.046875 Z M 66.765625 -43.078125 L 66.765625 -45.0625 L 68.75 -45.0625 L 68.75 -43.078125 Z M 70.78125 -43.078125 L 70.78125 -45.0625 L 72.765625 -45.0625 L 72.765625 -43.078125 Z M 76.828125 -43.484375 L 77.453125 -45.0625 L 76.828125 -45.0625 Z M 72.828125 -41.046875 L 72.828125 -43.078125 L 74.796875 -43.078125 L 74.796875 -41.046875 Z M 68.8125 -41.109375 L 68.8125 -43.03125 L 70.734375 -43.03125 L 70.734375 -41.109375 Z M 70.78125 -39.0625 L 70.78125 -41.046875 L 72.765625 -41.046875 L 72.765625 -39.0625 Z M 66.765625 -39.0625 L 66.765625 -40.984375 L 68.6875 -40.984375 L 68.6875 -39.0625 Z M 68.8125 -37.09375 L 68.8125 -39.015625 L 70.734375 -39.015625 L 70.734375 -37.09375 Z M 64.796875 -37.09375 L 64.796875 -38.953125 L 66.65625 -38.953125 L 66.65625 -37.09375 Z M 66.828125 -35.046875 L 66.828125 -36.96875 L 68.6875 -36.96875 L 68.6875 -35.046875 Z M 70.84375 -35.046875 L 70.84375 -36.96875 L 72.765625 -36.96875 L 72.765625 -35.046875 Z M 64.796875 -33.078125 L 64.796875 -34.9375 L 66.65625 -34.9375 L 66.65625 -33.078125 Z M 68.8125 -33.078125 L 68.8125 -34.9375 L 70.734375 -34.9375 L 70.734375 -33.078125 Z M 62.8125 -31.09375 L 62.8125 -32.90625 L 64.625 -32.90625 L 64.625 -31.09375 Z M 66.828125 -31.046875 L 66.828125 -32.90625 L 68.6875 -32.90625 L 68.6875 -31.046875 Z M 68.859375 -29.0625 L 68.859375 -30.921875 L 70.671875 -30.921875 L 70.671875 -29.0625 Z M 60.828125 -29.0625 L 60.828125 -30.875 L 62.59375 -30.875 L 62.59375 -29.0625 Z M 64.84375 -29.0625 L 64.84375 -30.875 L 66.65625 -30.875 L 66.65625 -29.0625 Z M 62.8125 -27.078125 L 62.8125 -28.828125 L 64.625 -28.828125 L 64.625 -27.078125 Z M 66.828125 -27.078125 L 66.828125 -28.828125 L 68.640625 -28.828125 L 68.640625 -27.078125 Z M 64.84375 -25.046875 L 64.84375 -26.859375 L 66.609375 -26.859375 L 66.609375 -25.046875 Z M 60.828125 -25.109375 L 60.828125 -26.796875 L 62.59375 -26.796875 L 62.59375 -25.109375 Z M 62.875 -23.0625 L 62.875 -24.828125 L 64.5625 -24.828125 L 64.5625 -23.0625 Z M 66.890625 -23.0625 L 66.890625 -24.828125 L 68.640625 -24.828125 L 68.640625 -23.0625 Z M 58.859375 -23.0625 L 58.859375 -24.765625 L 60.546875 -24.765625 L 60.546875 -23.0625 Z M 60.828125 -21.09375 L 60.828125 -22.78125 L 62.59375 -22.78125 L 62.59375 -21.09375 Z M 64.84375 -21.03125 L 64.84375 -22.78125 L 66.609375 -22.78125 L 66.609375 -21.03125 Z M 58.859375 -19.046875 L 58.859375 -20.75 L 60.546875 -20.75 L 60.546875 -19.046875 Z M 62.875 -19.046875 L 62.875 -20.75 L 64.5625 -20.75 L 64.5625 -19.046875 Z M 56.875 -17.078125 L 56.875 -18.71875 L 58.515625 -18.71875 L 58.515625 -17.078125 Z M 60.890625 -17.078125 L 60.890625 -18.71875 L 62.53125 -18.71875 L 62.53125 -17.078125 Z M 64.90625 -17.015625 L 64.90625 -18.71875 L 66.609375 -18.71875 L 66.609375 -17.015625 Z M 58.90625 -15.046875 L 58.90625 -16.671875 L 60.5 -16.671875 L 60.5 -15.046875 Z M 62.875 -15.046875 L 62.875 -16.671875 L 64.5625 -16.671875 L 64.5625 -15.046875 Z M 56.875 -13.0625 L 56.875 -14.640625 L 58.453125 -14.640625 L 58.453125 -13.0625 Z M 60.890625 -13.0625 L 60.890625 -14.640625 L 62.53125 -14.640625 L 62.53125 -13.0625 Z M 62.921875 -11.03125 L 62.921875 -12.671875 L 64.515625 -12.671875 L 64.515625 -11.03125 Z M 54.90625 -11.078125 L 54.90625 -12.609375 L 56.421875 -12.609375 L 56.421875 -11.078125 Z M 58.90625 -11.03125 L 58.90625 -12.609375 L 60.5 -12.609375 L 60.5 -11.03125 Z M 60.890625 -9.046875 L 60.890625 -10.625 L 62.53125 -10.625 L 62.53125 -9.046875 Z M 52.921875 -9.046875 L 52.921875 -10.578125 L 54.390625 -10.578125 L 54.390625 -9.046875 Z M 56.9375 -9.046875 L 56.9375 -10.578125 L 58.453125 -10.578125 L 58.453125 -9.046875 Z M 54.90625 -7.0625 L 54.90625 -8.59375 L 56.421875 -8.59375 L 56.421875 -7.0625 Z M 58.90625 -7.015625 L 58.90625 -8.59375 L 60.5 -8.59375 L 60.5 -7.015625 Z M 56.9375 -5.03125 L 56.9375 -6.5625 L 58.453125 -6.5625 L 58.453125 -5.03125 Z M 52.921875 -5.03125 L 52.921875 -6.5 L 54.390625 -6.5 L 54.390625 -5.03125 Z M 50.9375 -3.046875 L 50.9375 -4.515625 L 52.359375 -4.515625 L 52.359375 -3.046875 Z M 54.953125 -3.046875 L 54.953125 -4.515625 L 56.421875 -4.515625 L 56.421875 -3.046875 Z M 58.90625 -3 L 58.90625 -4.515625 L 60.4375 -4.515625 L 60.4375 -3 Z M 52.921875 -1.015625 L 52.921875 -2.484375 L 54.390625 -2.484375 L 54.390625 -1.015625 Z M 56.9375 -1.015625 L 56.9375 -2.484375 L 58.40625 -2.484375 L 58.40625 -1.015625 Z M 50.9375 0.96875 L 50.9375 -0.453125 L 52.359375 -0.453125 L 52.359375 0.96875 Z M 54.953125 0.96875 L 54.953125 -0.453125 L 56.375 -0.453125 L 56.375 0.96875 Z M 56.984375 3 L 56.984375 1.53125 L 58.40625 1.53125 L 58.40625 3 Z M 52.921875 3 L 52.921875 1.578125 L 54.328125 1.578125 L 54.328125 3 Z M 54.953125 4.96875 L 54.953125 3.5625 L 56.375 3.5625 L 56.375 4.96875 Z M 54.953125 4.96875 "/></g></g><g style="fill:#000000;fill-opacity:1;"><g transform="translate(6.809468, 103.181018)"><path style="stroke:none" d="M 40.078125 13.625 C 35.972656 13.625 32.335938 13.332031 29.171875 12.75 C 26.003906 12.164062 23.210938 11.421875 20.796875 10.515625 C 18.390625 9.609375 16.242188 8.6875 14.359375 7.75 L 2.71875 -3.90625 L 2.71875 -24.53125 C 6.40625 -22.351562 10.195312 -20.523438 14.09375 -19.046875 C 18 -17.578125 22.347656 -16.84375 27.140625 -16.84375 C 29.359375 -16.84375 31.378906 -17.039062 33.203125 -17.4375 C 35.035156 -17.832031 36.539062 -18.367188 37.71875 -19.046875 C 36.238281 -19.578125 34.734375 -20.113281 33.203125 -20.65625 C 31.679688 -21.207031 30.242188 -21.726562 28.890625 -22.21875 C 26.703125 -23.050781 24.851562 -23.878906 23.34375 -24.703125 C 21.84375 -25.535156 20.5 -26.457031 19.3125 -27.46875 C 18.125 -28.488281 16.925781 -29.660156 15.71875 -30.984375 C 14.507812 -32.304688 13.113281 -33.890625 11.53125 -35.734375 L 6.5625 -41.5 C 5.007812 -43.3125 3.847656 -45.328125 3.078125 -47.546875 C 2.304688 -49.773438 1.921875 -52.320312 1.921875 -55.1875 C 1.921875 -59.0625 2.664062 -62.609375 4.15625 -65.828125 C 5.644531 -69.054688 7.765625 -71.835938 10.515625 -74.171875 C 13.265625 -76.515625 16.523438 -78.328125 20.296875 -79.609375 C 24.066406 -80.890625 28.234375 -81.53125 32.796875 -81.53125 C 35.359375 -81.53125 37.984375 -81.332031 40.671875 -80.9375 C 43.367188 -80.539062 45.976562 -79.984375 48.5 -79.265625 C 51.03125 -78.546875 53.296875 -77.695312 55.296875 -76.71875 L 67 -65.015625 L 67 -45.0625 C 64.957031 -46.34375 62.738281 -47.507812 60.34375 -48.5625 C 57.957031 -49.625 55.53125 -50.472656 53.0625 -51.109375 C 50.59375 -51.753906 48.226562 -52.078125 45.96875 -52.078125 C 43.664062 -52.078125 41.5625 -51.820312 39.65625 -51.3125 C 37.757812 -50.800781 36.242188 -50.070312 35.109375 -49.125 C 37.554688 -48.414062 40.082031 -47.570312 42.6875 -46.59375 C 45.289062 -45.613281 47.785156 -44.425781 50.171875 -43.03125 C 52.566406 -41.632812 54.707031 -39.972656 56.59375 -38.046875 L 64.515625 -29.96875 C 68.960938 -25.40625 71.1875 -19.769531 71.1875 -13.0625 C 71.1875 -9.144531 70.429688 -5.554688 68.921875 -2.296875 C 67.410156 0.960938 65.269531 3.78125 62.5 6.15625 C 59.726562 8.53125 56.4375 10.367188 52.625 11.671875 C 48.820312 12.972656 44.640625 13.625 40.078125 13.625 Z M 29.96875 0.34375 C 34.257812 0.34375 38.1875 -0.25 41.75 -1.4375 C 45.3125 -2.625 48.382812 -4.320312 50.96875 -6.53125 C 53.550781 -8.738281 55.546875 -11.347656 56.953125 -14.359375 C 58.367188 -17.378906 59.0625 -20.695312 59.03125 -24.3125 C 58.988281 -27.550781 58.410156 -30.335938 57.296875 -32.671875 C 56.191406 -35.015625 54.695312 -36.992188 52.8125 -38.609375 C 50.925781 -40.234375 48.8125 -41.59375 46.46875 -42.6875 C 44.132812 -43.78125 41.734375 -44.722656 39.265625 -45.515625 C 36.796875 -46.304688 34.390625 -47.039062 32.046875 -47.71875 C 29.710938 -48.394531 27.613281 -49.109375 25.75 -49.859375 C 23.882812 -50.617188 22.40625 -51.523438 21.3125 -52.578125 C 20.21875 -53.628906 19.671875 -54.929688 19.671875 -56.484375 C 19.671875 -58.140625 20.3125 -59.585938 21.59375 -60.828125 C 22.875 -62.078125 24.644531 -63.050781 26.90625 -63.75 C 29.164062 -64.445312 31.769531 -64.796875 34.71875 -64.796875 C 37.695312 -64.796875 40.867188 -64.3125 44.234375 -63.34375 C 47.609375 -62.382812 50.769531 -61.113281 53.71875 -59.53125 L 53.71875 -75.25 C 51.832031 -76.113281 49.707031 -76.859375 47.34375 -77.484375 C 44.988281 -78.109375 42.566406 -78.597656 40.078125 -78.953125 C 37.597656 -79.316406 35.171875 -79.5 32.796875 -79.5 C 28.535156 -79.5 24.640625 -78.910156 21.109375 -77.734375 C 17.585938 -76.566406 14.546875 -74.898438 11.984375 -72.734375 C 9.421875 -70.566406 7.441406 -67.992188 6.046875 -65.015625 C 4.648438 -62.035156 3.953125 -58.757812 3.953125 -55.1875 C 3.953125 -51.976562 4.488281 -49.222656 5.5625 -46.921875 C 6.644531 -44.628906 8.109375 -42.679688 9.953125 -41.078125 C 11.796875 -39.472656 13.859375 -38.113281 16.140625 -37 C 18.421875 -35.894531 20.785156 -34.9375 23.234375 -34.125 C 25.679688 -33.3125 28.046875 -32.554688 30.328125 -31.859375 C 32.609375 -31.160156 34.671875 -30.414062 36.515625 -29.625 C 38.367188 -28.832031 39.832031 -27.898438 40.90625 -26.828125 C 41.976562 -25.753906 42.515625 -24.425781 42.515625 -22.84375 C 42.515625 -21.21875 41.863281 -19.800781 40.5625 -18.59375 C 39.257812 -17.394531 37.445312 -16.460938 35.125 -15.796875 C 32.8125 -15.140625 30.148438 -14.8125 27.140625 -14.8125 C 22.578125 -14.8125 18.457031 -15.441406 14.78125 -16.703125 C 11.101562 -17.960938 7.722656 -19.5 4.640625 -21.3125 L 4.640625 -5.03125 C 7.273438 -3.789062 9.898438 -2.78125 12.515625 -2 C 15.140625 -1.226562 17.875 -0.65625 20.71875 -0.28125 C 23.5625 0.09375 26.644531 0.300781 29.96875 0.34375 Z M 64.96875 -48.5625 L 64.96875 -64.234375 L 55.75 -73.4375 L 55.75 -57.328125 Z M 35.046875 -62.140625 L 35.625 -62.140625 L 35.625 -62.703125 L 35.046875 -62.703125 Z M 30.921875 -62.015625 L 32 -62.015625 L 32 -62.640625 L 30.921875 -62.53125 Z M 32.734375 -49.859375 L 32.734375 -51.34375 L 34.15625 -51.34375 L 34.15625 -53.140625 L 32.34375 -53.140625 L 32.34375 -51.734375 L 30.703125 -51.734375 L 30.703125 -53.375 L 32.171875 -53.375 L 32.171875 -55.1875 L 30.296875 -55.1875 L 30.296875 -53.71875 L 28.671875 -53.71875 L 28.671875 -55.34375 L 30.140625 -55.34375 L 30.140625 -57.21875 L 28.328125 -57.21875 L 28.328125 -55.75 L 26.6875 -55.75 L 26.6875 -57.390625 L 28.15625 -57.390625 L 28.15625 -59.203125 L 26.296875 -59.203125 L 26.296875 -57.71875 L 24.65625 -57.71875 L 24.65625 -59.359375 L 26.125 -59.359375 L 26.125 -61.234375 L 25.890625 -61.234375 L 24.25 -60.390625 L 24.25 -59.765625 L 23.46875 -59.765625 C 22.289062 -58.785156 21.703125 -57.691406 21.703125 -56.484375 C 21.742188 -55.390625 22.242188 -54.457031 23.203125 -53.6875 C 24.171875 -52.914062 25.484375 -52.234375 27.140625 -51.640625 C 28.796875 -51.054688 30.660156 -50.460938 32.734375 -49.859375 Z M 28.828125 -59.9375 L 30.078125 -59.9375 L 30.078125 -61.171875 L 28.828125 -61.171875 Z M 32.96875 -60.046875 L 34.03125 -60.046875 L 34.03125 -61.0625 L 32.96875 -61.0625 Z M 37.03125 -60.09375 L 37.59375 -60.09375 L 37.59375 -60.671875 L 37.03125 -60.671875 Z M 30.875 -57.953125 L 32.0625 -57.953125 L 32.0625 -59.140625 L 30.875 -59.140625 Z M 35 -58.015625 L 36.015625 -58.015625 L 36.015625 -59.078125 L 35 -59.078125 Z M 39.0625 -58.0625 L 39.640625 -58.0625 L 39.640625 -58.625 L 39.0625 -58.625 Z M 32.90625 -55.921875 L 34.09375 -55.921875 L 34.09375 -57.109375 L 32.90625 -57.109375 Z M 36.96875 -55.96875 L 38.046875 -55.96875 L 38.046875 -57.046875 L 36.96875 -57.046875 Z M 23.125 -56.203125 L 23.125 -56.875 L 23.796875 -56.875 L 23.796875 -56.203125 Z M 41.109375 -56.09375 L 41.671875 -56.09375 L 41.671875 -56.65625 L 41.109375 -56.65625 Z M 34.890625 -53.875 L 36.125 -53.875 L 36.125 -55.125 L 34.890625 -55.125 Z M 39.015625 -54 L 40.078125 -54 L 40.078125 -55.015625 L 39.015625 -55.015625 Z M 25.15625 -54.21875 L 25.15625 -54.84375 L 25.78125 -54.84375 L 25.78125 -54.21875 Z M 43.078125 -54.046875 L 43.640625 -54.046875 L 43.640625 -54.609375 L 43.078125 -54.609375 Z M 36.921875 -52.53125 L 38.046875 -52.921875 L 38.046875 -53.09375 L 36.921875 -53.09375 Z M 27.140625 -52.1875 L 27.140625 -52.859375 L 27.8125 -52.859375 L 27.8125 -52.1875 Z M 15.890625 -34.03125 L 16.734375 -34.03125 L 16.734375 -34.484375 C 16.660156 -34.523438 16.578125 -34.5625 16.484375 -34.59375 C 16.390625 -34.632812 16.304688 -34.675781 16.234375 -34.71875 L 15.890625 -34.890625 Z M 17.859375 -32 L 18.765625 -32 L 18.765625 -32.96875 L 17.859375 -32.96875 Z M 21.875 -32 L 22.84375 -32 L 22.84375 -32.0625 L 21.875 -32.390625 Z M 59.078125 6.21875 L 60.265625 5.375 L 59.078125 5.375 L 59.078125 3.453125 L 60.953125 3.453125 L 60.953125 4.8125 L 62.640625 3.21875 L 61.234375 3.21875 L 61.234375 1.578125 L 62.875 1.578125 L 62.875 3 L 64.453125 1.125 L 63.328125 1.125 L 63.328125 -0.34375 L 64.796875 -0.34375 L 64.796875 0.734375 L 65.921875 -1.015625 L 65.46875 -1.015625 L 65.46875 -2.265625 L 66.609375 -2.265625 C 67.015625 -3.054688 67.367188 -3.863281 67.671875 -4.6875 C 67.972656 -5.519531 68.238281 -6.367188 68.46875 -7.234375 L 67.671875 -7.234375 L 67.671875 -8.078125 L 68.53125 -8.078125 L 68.53125 -7.46875 C 68.71875 -8.363281 68.863281 -9.28125 68.96875 -10.21875 C 69.082031 -11.164062 69.140625 -12.113281 69.140625 -13.0625 C 69.140625 -16.257812 68.640625 -19.113281 67.640625 -21.625 C 66.648438 -24.132812 65.117188 -26.425781 63.046875 -28.5 L 59.984375 -31.546875 C 60.328125 -30.492188 60.59375 -29.375 60.78125 -28.1875 C 60.96875 -27 61.0625 -25.707031 61.0625 -24.3125 C 61.0625 -22.875 60.957031 -21.476562 60.75 -20.125 C 60.539062 -18.769531 60.226562 -17.453125 59.8125 -16.171875 L 60.4375 -16.171875 L 60.4375 -15.328125 L 59.59375 -15.328125 L 59.59375 -15.546875 C 58.6875 -12.941406 57.367188 -10.566406 55.640625 -8.421875 L 56.703125 -8.421875 L 56.703125 -6.953125 L 55.296875 -6.953125 L 55.296875 -8.03125 L 53.71875 -6.328125 L 54.78125 -6.328125 L 54.78125 -4.6875 L 53.140625 -4.6875 L 53.140625 -5.765625 L 51.796875 -4.578125 L 52.921875 -4.578125 L 52.921875 -2.71875 L 51.046875 -2.71875 L 51.046875 -4.015625 L 49.078125 -2.65625 L 51 -2.65625 L 51 -0.671875 L 53.03125 -0.671875 L 53.03125 1.359375 L 55.0625 1.359375 L 55.0625 3.328125 L 57.046875 3.328125 L 57.046875 5.375 L 59.078125 5.375 Z M 23.859375 -29.96875 L 24.875 -29.96875 L 24.875 -30.984375 L 23.859375 -30.984375 Z M 19.84375 -29.96875 L 20.859375 -29.96875 L 20.859375 -30.921875 L 19.84375 -30.921875 Z M 27.875 -29.90625 L 28.953125 -29.90625 L 28.953125 -30.140625 L 27.875 -30.46875 Z M 25.84375 -27.875 L 26.96875 -27.875 L 26.96875 -29 L 25.84375 -29 Z M 29.859375 -27.875 L 31.046875 -27.875 L 31.046875 -29 L 29.859375 -29 Z M 21.875 -27.9375 L 22.890625 -27.9375 L 22.890625 -28.953125 L 21.828125 -28.953125 L 21.828125 -27.984375 Z M 33.8125 -27.8125 L 35.046875 -27.8125 L 35.046875 -28.046875 L 33.8125 -28.5 Z M 35.78125 -25.78125 L 37.140625 -25.78125 L 37.140625 -27.078125 L 35.78125 -27.078125 Z M 27.8125 -25.84375 L 29 -25.84375 L 29 -27.03125 L 27.8125 -27.03125 Z M 31.828125 -25.84375 L 33.078125 -25.84375 L 33.078125 -27.03125 L 31.828125 -27.03125 Z M 24.9375 -26.0625 L 24.9375 -26.96875 L 23.796875 -26.96875 L 23.796875 -26.6875 Z M 37.828125 -23.75 L 39.1875 -23.75 L 39.1875 -25.109375 L 37.828125 -25.109375 Z M 30.46875 -23.796875 L 31.046875 -23.796875 L 31.046875 -25.046875 L 29.796875 -25.046875 L 29.796875 -24.03125 Z M 33.8125 -23.75 L 35.109375 -23.75 L 35.109375 -25.046875 L 33.8125 -25.046875 Z M 33.125 -22.84375 L 33.125 -23.125 L 32.34375 -23.125 Z M 39.796875 -21.703125 L 40.25 -21.703125 C 40.40625 -22.003906 40.484375 -22.382812 40.484375 -22.84375 L 40.484375 -23.125 L 39.796875 -23.125 Z M 36.40625 -21.703125 L 37.140625 -21.703125 L 37.140625 -23.0625 L 35.78125 -23.0625 L 35.78125 -21.9375 Z M 61.796875 -21.546875 L 61.796875 -22.046875 L 62.3125 -22.046875 L 62.3125 -21.546875 Z M 39.1875 -20.6875 L 39.1875 -21.09375 L 38.109375 -21.09375 Z M 63.828125 -19.5 L 63.828125 -20.015625 L 64.34375 -20.015625 L 64.34375 -19.5 Z M 61.6875 -17.40625 L 61.6875 -18.09375 L 62.359375 -18.09375 L 62.359375 -17.40625 Z M 65.8125 -17.46875 L 65.8125 -17.984375 L 66.3125 -17.984375 L 66.3125 -17.46875 Z M 63.71875 -15.375 L 63.71875 -16.0625 L 64.390625 -16.0625 L 64.390625 -15.375 Z M 67.84375 -15.484375 L 67.84375 -16 L 68.359375 -16 L 68.359375 -15.484375 Z M 61.625 -13.28125 L 61.625 -14.140625 L 62.46875 -14.140625 L 62.46875 -13.28125 Z M 65.75 -13.40625 L 65.75 -14.078125 L 66.4375 -14.078125 L 66.4375 -13.40625 Z M 59.53125 -11.1875 L 59.53125 -12.21875 L 60.546875 -12.21875 L 60.546875 -11.1875 Z M 63.609375 -11.25 L 63.609375 -12.15625 L 64.515625 -12.15625 L 64.515625 -11.25 Z M 67.734375 -11.359375 L 67.734375 -12.046875 L 68.40625 -12.046875 L 68.40625 -11.359375 Z M 57.390625 -9.109375 L 57.390625 -10.296875 L 58.625 -10.296875 L 58.625 -9.109375 Z M 61.515625 -9.15625 L 61.515625 -10.234375 L 62.59375 -10.234375 L 62.59375 -9.15625 Z M 65.640625 -9.265625 L 65.640625 -10.125 L 66.484375 -10.125 L 66.484375 -9.265625 Z M 59.421875 -7.0625 L 59.421875 -8.3125 L 60.671875 -8.3125 L 60.671875 -7.0625 Z M 63.546875 -7.1875 L 63.546875 -8.203125 L 64.5625 -8.203125 L 64.5625 -7.1875 Z M 57.28125 -4.921875 L 57.28125 -6.390625 L 58.75 -6.390625 L 58.75 -4.921875 Z M 61.453125 -5.03125 L 61.453125 -6.28125 L 62.640625 -6.28125 L 62.640625 -5.03125 Z M 65.53125 -5.140625 L 65.53125 -6.15625 L 66.609375 -6.15625 L 66.609375 -5.140625 Z M 55.1875 -2.828125 L 55.1875 -4.46875 L 56.828125 -4.46875 L 56.828125 -2.828125 Z M 59.3125 -2.9375 L 59.3125 -4.359375 L 60.78125 -4.359375 L 60.78125 -2.9375 Z M 63.4375 -3.046875 L 63.4375 -4.234375 L 64.6875 -4.234375 L 64.6875 -3.046875 Z M 47.046875 -0.796875 L 48.90625 -0.796875 L 48.90625 -2.546875 L 47.046875 -1.53125 Z M 53.03125 -0.671875 L 53.03125 -2.546875 L 54.90625 -2.546875 L 54.90625 -0.671875 Z M 57.15625 -0.796875 L 57.15625 -2.484375 L 58.859375 -2.484375 L 58.859375 -0.796875 Z M 61.34375 -0.90625 L 61.34375 -2.375 L 62.765625 -2.375 L 62.765625 -0.90625 Z M 49.125 1.25 L 50.9375 1.25 L 50.9375 -0.5625 L 49.125 -0.5625 Z M 55.0625 1.296875 L 55.0625 -0.5625 L 56.9375 -0.5625 L 56.9375 1.296875 Z M 45.234375 1.078125 L 46.75 1.078125 L 46.75 -0.453125 L 45.234375 -0.453125 Z M 59.203125 1.25 L 59.203125 -0.453125 L 60.890625 -0.453125 L 60.890625 1.25 Z M 41.328125 0.96875 L 42.625 0.96875 L 42.625 0.390625 L 41.328125 0.796875 Z M 51.109375 3.21875 L 52.921875 3.21875 L 52.921875 1.46875 L 51.109375 1.46875 Z M 57.046875 3.328125 L 57.046875 1.46875 L 58.96875 1.46875 L 58.96875 3.328125 Z M 47.203125 3.109375 L 48.796875 3.109375 L 48.796875 1.578125 L 47.203125 1.578125 Z M 43.3125 3 L 44.609375 3 L 44.609375 1.703125 L 43.3125 1.703125 Z M 39.40625 2.890625 L 40.484375 2.890625 L 40.484375 1.8125 L 39.40625 1.8125 Z M 35.5 2.71875 L 36.296875 2.71875 L 36.296875 1.921875 L 35.5 2.03125 Z M 31.609375 2.59375 L 32.171875 2.59375 L 32.171875 2.3125 L 31.609375 2.3125 Z M 53.140625 5.265625 L 54.953125 5.265625 L 54.953125 3.453125 L 53.140625 3.453125 Z M 49.25 5.140625 L 50.765625 5.140625 L 50.765625 3.5625 L 49.25 3.5625 Z M 45.34375 5.03125 L 46.640625 5.03125 L 46.640625 3.671875 L 45.34375 3.671875 Z M 41.4375 4.859375 L 42.453125 4.859375 L 42.453125 3.84375 L 41.4375 3.84375 Z M 37.546875 4.75 L 38.328125 4.75 L 38.328125 3.953125 L 37.546875 3.953125 Z M 33.640625 4.640625 L 34.15625 4.640625 L 34.15625 4.078125 L 33.640625 4.078125 Z M 55.1875 7.296875 L 56.9375 7.296875 L 56.9375 5.484375 L 55.1875 5.484375 Z M 51.28125 7.125 L 52.8125 7.125 L 52.8125 5.59375 L 51.28125 5.59375 Z M 47.328125 7.015625 L 48.6875 7.015625 L 48.6875 5.703125 L 47.328125 5.703125 Z M 43.421875 6.890625 L 44.5 6.890625 L 44.5 5.828125 L 43.421875 5.828125 Z M 39.578125 6.78125 L 40.375 6.78125 L 40.375 5.9375 L 39.578125 5.9375 Z M 35.671875 6.609375 L 36.1875 6.609375 L 36.1875 6.109375 L 35.671875 6.109375 Z M 53.265625 9.15625 L 53.59375 9.15625 L 54.84375 8.59375 L 54.84375 7.625 L 53.265625 7.625 Z M 49.359375 9.046875 L 50.65625 9.046875 L 50.65625 7.75 L 49.359375 7.75 Z M 45.453125 8.9375 L 46.53125 8.9375 L 46.53125 7.859375 L 45.453125 7.859375 Z M 41.5625 8.765625 L 42.34375 8.765625 L 42.34375 7.96875 L 41.5625 7.96875 Z M 37.65625 8.65625 L 38.21875 8.65625 L 38.21875 8.140625 L 37.65625 8.140625 Z M 51.34375 9.953125 L 52.234375 9.671875 L 51.34375 9.671875 Z M 47.5 10.90625 L 48.515625 10.6875 L 48.515625 9.890625 L 47.5 9.890625 Z M 43.59375 10.796875 L 44.375 10.796875 L 44.375 10 L 43.59375 10 Z M 39.6875 10.625 L 40.203125 10.625 L 40.203125 10.125 L 39.6875 10.125 Z M 39.6875 10.625 "/></g></g><g style="fill:#000000;fill-opacity:1;"><g transform="translate(54.858201, 103.181018)"><path style="stroke:none" d="M 38.328125 12.265625 L 26.625 0.5625 L -3.84375 -80.171875 L 18.375 -80.171875 L 34.15625 -68.53125 L 43.9375 -40.828125 L 56.484375 -80.171875 L 78.078125 -80.171875 L 88.703125 -69.265625 L 58.0625 12.265625 Z M 28.15625 -1.015625 L 47.15625 -1.015625 L 76.21875 -78.140625 L 57.953125 -78.140625 L 38.734375 -17.8125 L 17.359375 -78.140625 L -0.90625 -78.140625 Z M 77.34375 -75.484375 L 78.640625 -75.484375 L 78.640625 -76.71875 L 78.25 -77.125 L 77.96875 -77.125 Z M 38.609375 -24.140625 L 42.90625 -37.59375 L 32.453125 -67.28125 L 20.1875 -76.390625 Z M 78.984375 -73.4375 L 80.6875 -73.4375 L 80.6875 -74.625 L 80.171875 -75.140625 L 78.984375 -75.140625 Z M 76.953125 -71.40625 L 78.703125 -71.40625 L 78.703125 -73.109375 L 76.953125 -73.109375 Z M 81.015625 -71.46875 L 82.65625 -71.46875 L 82.65625 -72.59375 L 82.15625 -73.109375 L 81.015625 -73.109375 Z M 75.078125 -69.375 L 76.671875 -69.375 L 76.671875 -71.125 L 75.703125 -71.125 Z M 78.984375 -69.421875 L 80.6875 -69.421875 L 80.6875 -71.125 L 78.984375 -71.125 Z M 83.0625 -69.421875 L 84.6875 -69.421875 L 84.6875 -70.5 L 84.125 -71.0625 L 83.0625 -71.0625 Z M 76.953125 -67.390625 L 78.703125 -67.390625 L 78.703125 -69.09375 L 76.953125 -69.09375 Z M 81.015625 -67.390625 L 82.71875 -67.390625 L 82.71875 -69.09375 L 81.015625 -69.09375 Z M 85.03125 -67.390625 L 85.828125 -67.390625 L 86.328125 -68.8125 L 86.046875 -69.09375 L 85.03125 -69.09375 Z M 74.34375 -67.34375 L 74.6875 -67.34375 L 74.6875 -68.296875 Z M 74.90625 -65.359375 L 76.71875 -65.359375 L 76.71875 -67.109375 L 74.90625 -67.109375 Z M 78.984375 -65.359375 L 80.6875 -65.359375 L 80.6875 -67.109375 L 78.984375 -67.109375 Z M 83 -65.359375 L 84.6875 -65.359375 L 84.6875 -67.109375 L 83 -67.109375 Z M 72.875 -63.328125 L 74.6875 -63.328125 L 74.6875 -65.125 L 73.5 -65.125 L 72.875 -63.5 Z M 76.953125 -63.328125 L 78.703125 -63.328125 L 78.703125 -65.125 L 76.953125 -65.125 Z M 80.96875 -63.328125 L 82.71875 -63.328125 L 82.71875 -65.078125 L 80.96875 -65.078125 Z M 74.90625 -61.28125 L 76.71875 -61.28125 L 76.71875 -63.09375 L 74.90625 -63.09375 Z M 78.921875 -61.28125 L 80.734375 -61.28125 L 80.734375 -63.09375 L 78.921875 -63.09375 Z M 83 -61.34375 L 83.5625 -61.34375 L 84.1875 -63.09375 L 83 -63.09375 Z M 72.03125 -61.28125 L 72.703125 -61.28125 L 72.703125 -63.046875 Z M 72.875 -59.25 L 74.75 -59.25 L 74.75 -61.125 L 72.875 -61.125 Z M 76.890625 -59.25 L 78.703125 -59.25 L 78.703125 -61.125 L 76.890625 -61.125 Z M 80.96875 -59.3125 L 82.71875 -59.3125 L 82.71875 -61.0625 L 80.96875 -61.0625 Z M 70.84375 -57.21875 L 72.703125 -57.21875 L 72.703125 -59.140625 L 71.234375 -59.140625 L 70.84375 -58.125 Z M 74.859375 -57.28125 L 76.71875 -57.28125 L 76.71875 -59.078125 L 74.859375 -59.078125 Z M 78.921875 -57.28125 L 80.734375 -57.28125 L 80.734375 -59.078125 L 78.921875 -59.078125 Z M 69.71875 -55.1875 L 70.734375 -55.1875 L 70.734375 -57.109375 L 70.453125 -57.109375 Z M 72.828125 -55.1875 L 74.75 -55.1875 L 74.75 -57.109375 L 72.828125 -57.109375 Z M 76.890625 -55.234375 L 78.765625 -55.234375 L 78.765625 -57.109375 L 76.890625 -57.109375 Z M 80.96875 -55.234375 L 81.25 -55.234375 L 81.921875 -57.046875 L 80.96875 -57.046875 Z M 70.78125 -53.203125 L 72.765625 -53.203125 L 72.765625 -55.125 L 70.78125 -55.125 Z M 74.859375 -53.203125 L 76.78125 -53.203125 L 76.78125 -55.0625 L 74.859375 -55.0625 Z M 78.921875 -53.203125 L 80.515625 -53.203125 L 80.796875 -54.046875 L 80.796875 -55.0625 L 78.921875 -55.0625 Z M 68.75 -51.171875 L 70.734375 -51.171875 L 70.734375 -53.09375 L 68.921875 -53.09375 L 68.75 -52.578125 Z M 72.828125 -51.171875 L 74.75 -51.171875 L 74.75 -53.09375 L 72.828125 -53.09375 Z M 76.890625 -51.171875 L 78.765625 -51.171875 L 78.765625 -53.09375 L 76.890625 -53.09375 Z M 56.65625 10.40625 L 57.890625 7.015625 L 56.984375 7.015625 L 56.984375 5.59375 L 58.453125 5.59375 L 58.96875 4.1875 L 58.96875 3.5625 L 59.203125 3.5625 L 60.15625 0.96875 L 58.96875 0.96875 L 58.96875 -0.515625 L 60.4375 -0.515625 L 60.4375 0.28125 L 60.953125 -1.078125 L 60.953125 -2.546875 L 61.515625 -2.546875 L 62.421875 -5.03125 L 60.953125 -5.03125 L 60.953125 -6.5625 L 62.46875 -6.5625 L 62.46875 -5.140625 L 63.15625 -7.015625 L 62.921875 -7.015625 L 62.921875 -8.59375 L 63.78125 -8.59375 L 65.421875 -13 L 64.90625 -13 L 64.90625 -14.703125 L 66.03125 -14.703125 L 67.671875 -19.046875 L 66.890625 -19.046875 L 66.890625 -20.75 L 68.296875 -20.75 L 68.859375 -22.21875 L 68.859375 -22.78125 L 69.09375 -22.78125 L 69.9375 -25.046875 L 68.859375 -25.046875 L 68.859375 -26.859375 L 70.609375 -26.859375 L 70.84375 -27.484375 L 70.84375 -28.890625 L 71.359375 -28.890625 L 72.203125 -31.046875 L 70.84375 -31.046875 L 70.84375 -32.90625 L 72.703125 -32.90625 L 72.703125 -32.453125 L 72.9375 -33.015625 L 72.828125 -33.015625 L 72.828125 -34.9375 L 73.609375 -34.9375 L 74.40625 -37.03125 L 72.828125 -37.03125 L 72.828125 -39.015625 L 74.796875 -39.015625 L 74.796875 -38.046875 L 75.203125 -39.0625 L 74.796875 -39.0625 L 74.796875 -41.046875 L 75.9375 -41.046875 L 76.671875 -43.078125 L 74.796875 -43.078125 L 74.796875 -45.0625 L 72.765625 -45.0625 L 72.765625 -47.09375 L 70.78125 -47.09375 L 70.78125 -49.125 L 72.765625 -49.125 L 72.765625 -51.109375 L 70.78125 -51.109375 L 70.78125 -49.125 L 68.75 -49.125 L 68.75 -51.109375 L 68.1875 -51.109375 L 67.453125 -49.125 L 68.75 -49.125 L 68.75 -47.09375 L 66.71875 -47.09375 L 66.71875 -45.125 L 65.921875 -45.125 L 65.125 -43.03125 L 66.71875 -43.03125 L 66.71875 -41.109375 L 64.796875 -41.109375 L 64.796875 -42.125 L 64.390625 -40.984375 L 64.6875 -40.984375 L 64.6875 -39.125 L 63.65625 -39.125 L 62.8125 -36.921875 L 64.6875 -36.921875 L 64.6875 -35.109375 L 62.8125 -35.109375 L 62.8125 -36.859375 L 62.078125 -34.890625 L 62.59375 -34.890625 L 62.59375 -33.078125 L 61.40625 -33.078125 L 59.765625 -28.828125 L 60.546875 -28.828125 L 60.546875 -27.078125 L 59.140625 -27.078125 L 58.515625 -25.5 L 58.515625 -25.109375 L 58.34375 -25.109375 L 57.5 -22.734375 L 58.515625 -22.734375 L 58.515625 -21.09375 L 56.875 -21.09375 L 56.484375 -20.078125 L 56.484375 -19.109375 L 56.09375 -19.109375 L 55.1875 -16.671875 L 56.484375 -16.671875 L 56.484375 -15.09375 L 54.90625 -15.09375 L 54.90625 -15.890625 L 54.453125 -14.640625 L 54.453125 -13.0625 L 53.828125 -13.0625 L 52.125 -8.53125 L 52.359375 -8.53125 L 52.359375 -7.0625 L 51.5625 -7.0625 L 49.8125 -2.484375 L 50.3125 -2.484375 L 50.3125 -1.078125 L 49.296875 -1.078125 L 48.5625 0.84375 L 49.1875 1.578125 L 50.3125 1.578125 L 50.3125 2.9375 L 50.9375 3.671875 L 50.9375 3.625 L 52.296875 3.625 L 52.296875 4.96875 L 52.078125 4.96875 L 52.984375 6.046875 L 52.984375 5.59375 L 54.328125 5.59375 L 54.328125 6.953125 L 53.765625 6.953125 L 55.015625 8.421875 L 55.015625 7.625 L 56.375 7.625 L 56.375 8.984375 L 55.46875 8.984375 Z M 74.859375 -49.125 L 76.78125 -49.125 L 76.78125 -51.046875 L 74.859375 -51.046875 Z M 78.875 -49.1875 L 78.984375 -49.1875 L 79.65625 -51.046875 L 78.875 -51.046875 Z M 72.828125 -47.09375 L 74.796875 -47.09375 L 74.796875 -49.078125 L 72.828125 -49.078125 Z M 76.828125 -47.15625 L 78.1875 -47.15625 L 78.8125 -48.734375 L 78.8125 -49.078125 L 76.828125 -49.078125 Z M 68.75 -45.0625 L 68.75 -47.09375 L 70.78125 -47.09375 L 70.78125 -45.0625 Z M 74.796875 -45.125 L 76.78125 -45.125 L 76.78125 -47.046875 L 74.796875 -47.046875 Z M 66.765625 -43.078125 L 66.765625 -45.0625 L 68.75 -45.0625 L 68.75 -43.078125 Z M 70.78125 -43.078125 L 70.78125 -45.0625 L 72.765625 -45.0625 L 72.765625 -43.078125 Z M 76.828125 -43.484375 L 77.453125 -45.0625 L 76.828125 -45.0625 Z M 72.828125 -41.046875 L 72.828125 -43.078125 L 74.796875 -43.078125 L 74.796875 -41.046875 Z M 68.8125 -41.109375 L 68.8125 -43.03125 L 70.734375 -43.03125 L 70.734375 -41.109375 Z M 70.78125 -39.0625 L 70.78125 -41.046875 L 72.765625 -41.046875 L 72.765625 -39.0625 Z M 66.765625 -39.0625 L 66.765625 -40.984375 L 68.6875 -40.984375 L 68.6875 -39.0625 Z M 68.8125 -37.09375 L 68.8125 -39.015625 L 70.734375 -39.015625 L 70.734375 -37.09375 Z M 64.796875 -37.09375 L 64.796875 -38.953125 L 66.65625 -38.953125 L 66.65625 -37.09375 Z M 66.828125 -35.046875 L 66.828125 -36.96875 L 68.6875 -36.96875 L 68.6875 -35.046875 Z M 70.84375 -35.046875 L 70.84375 -36.96875 L 72.765625 -36.96875 L 72.765625 -35.046875 Z M 64.796875 -33.078125 L 64.796875 -34.9375 L 66.65625 -34.9375 L 66.65625 -33.078125 Z M 68.8125 -33.078125 L 68.8125 -34.9375 L 70.734375 -34.9375 L 70.734375 -33.078125 Z M 62.8125 -31.09375 L 62.8125 -32.90625 L 64.625 -32.90625 L 64.625 -31.09375 Z M 66.828125 -31.046875 L 66.828125 -32.90625 L 68.6875 -32.90625 L 68.6875 -31.046875 Z M 68.859375 -29.0625 L 68.859375 -30.921875 L 70.671875 -30.921875 L 70.671875 -29.0625 Z M 60.828125 -29.0625 L 60.828125 -30.875 L 62.59375 -30.875 L 62.59375 -29.0625 Z M 64.84375 -29.0625 L 64.84375 -30.875 L 66.65625 -30.875 L 66.65625 -29.0625 Z M 62.8125 -27.078125 L 62.8125 -28.828125 L 64.625 -28.828125 L 64.625 -27.078125 Z M 66.828125 -27.078125 L 66.828125 -28.828125 L 68.640625 -28.828125 L 68.640625 -27.078125 Z M 64.84375 -25.046875 L 64.84375 -26.859375 L 66.609375 -26.859375 L 66.609375 -25.046875 Z M 60.828125 -25.109375 L 60.828125 -26.796875 L 62.59375 -26.796875 L 62.59375 -25.109375 Z M 62.875 -23.0625 L 62.875 -24.828125 L 64.5625 -24.828125 L 64.5625 -23.0625 Z M 66.890625 -23.0625 L 66.890625 -24.828125 L 68.640625 -24.828125 L 68.640625 -23.0625 Z M 58.859375 -23.0625 L 58.859375 -24.765625 L 60.546875 -24.765625 L 60.546875 -23.0625 Z M 60.828125 -21.09375 L 60.828125 -22.78125 L 62.59375 -22.78125 L 62.59375 -21.09375 Z M 64.84375 -21.03125 L 64.84375 -22.78125 L 66.609375 -22.78125 L 66.609375 -21.03125 Z M 58.859375 -19.046875 L 58.859375 -20.75 L 60.546875 -20.75 L 60.546875 -19.046875 Z M 62.875 -19.046875 L 62.875 -20.75 L 64.5625 -20.75 L 64.5625 -19.046875 Z M 56.875 -17.078125 L 56.875 -18.71875 L 58.515625 -18.71875 L 58.515625 -17.078125 Z M 60.890625 -17.078125 L 60.890625 -18.71875 L 62.53125 -18.71875 L 62.53125 -17.078125 Z M 64.90625 -17.015625 L 64.90625 -18.71875 L 66.609375 -18.71875 L 66.609375 -17.015625 Z M 58.90625 -15.046875 L 58.90625 -16.671875 L 60.5 -16.671875 L 60.5 -15.046875 Z M 62.875 -15.046875 L 62.875 -16.671875 L 64.5625 -16.671875 L 64.5625 -15.046875 Z M 56.875 -13.0625 L 56.875 -14.640625 L 58.453125 -14.640625 L 58.453125 -13.0625 Z M 60.890625 -13.0625 L 60.890625 -14.640625 L 62.53125 -14.640625 L 62.53125 -13.0625 Z M 62.921875 -11.03125 L 62.921875 -12.671875 L 64.515625 -12.671875 L 64.515625 -11.03125 Z M 54.90625 -11.078125 L 54.90625 -12.609375 L 56.421875 -12.609375 L 56.421875 -11.078125 Z M 58.90625 -11.03125 L 58.90625 -12.609375 L 60.5 -12.609375 L 60.5 -11.03125 Z M 60.890625 -9.046875 L 60.890625 -10.625 L 62.53125 -10.625 L 62.53125 -9.046875 Z M 52.921875 -9.046875 L 52.921875 -10.578125 L 54.390625 -10.578125 L 54.390625 -9.046875 Z M 56.9375 -9.046875 L 56.9375 -10.578125 L 58.453125 -10.578125 L 58.453125 -9.046875 Z M 54.90625 -7.0625 L 54.90625 -8.59375 L 56.421875 -8.59375 L 56.421875 -7.0625 Z M 58.90625 -7.015625 L 58.90625 -8.59375 L 60.5 -8.59375 L 60.5 -7.015625 Z M 56.9375 -5.03125 L 56.9375 -6.5625 L 58.453125 -6.5625 L 58.453125 -5.03125 Z M 52.921875 -5.03125 L 52.921875 -6.5 L 54.390625 -6.5 L 54.390625 -5.03125 Z M 50.9375 -3.046875 L 50.9375 -4.515625 L 52.359375 -4.515625 L 52.359375 -3.046875 Z M 54.953125 -3.046875 L 54.953125 -4.515625 L 56.421875 -4.515625 L 56.421875 -3.046875 Z M 58.90625 -3 L 58.90625 -4.515625 L 60.4375 -4.515625 L 60.4375 -3 Z M 52.921875 -1.015625 L 52.921875 -2.484375 L 54.390625 -2.484375 L 54.390625 -1.015625 Z M 56.9375 -1.015625 L 56.9375 -2.484375 L 58.40625 -2.484375 L 58.40625 -1.015625 Z M 50.9375 0.96875 L 50.9375 -0.453125 L 52.359375 -0.453125 L 52.359375 0.96875 Z M 54.953125 0.96875 L 54.953125 -0.453125 L 56.375 -0.453125 L 56.375 0.96875 Z M 56.984375 3 L 56.984375 1.53125 L 58.40625 1.53125 L 58.40625 3 Z M 52.921875 3 L 52.921875 1.578125 L 54.328125 1.578125 L 54.328125 3 Z M 54.953125 4.96875 L 54.953125 3.5625 L 56.375 3.5625 L 56.375 4.96875 Z M 54.953125 4.96875 "/></g></g></g></svg>